<?xml version="1.0" encoding="UTF-8"?>
<!DOCTYPE svg PUBLIC "-//W3C//DTD SVG 1.1//EN" "http://www.w3.org/Graphics/SVG/1.1/DTD/svg11.dtd">
<svg version="1.2" width="50mm" height="70mm" viewBox="0 0 5000 7000" preserveAspectRatio="xMidYMid" fill-rule="evenodd" stroke-width="28.222" stroke-linejoin="round" xmlns="http://www.w3.org/2000/svg" xmlns:ooo="http://xml.openoffice.org/svg/export" xmlns:xlink="http://www.w3.org/1999/xlink" xmlns:presentation="http://sun.com/xmlns/staroffice/presentation" xmlns:smil="http://www.w3.org/2001/SMIL20/" xmlns:anim="urn:oasis:names:tc:opendocument:xmlns:animation:1.0" xml:space="preserve">
 <defs class="ClipPathGroup">
  <clipPath id="presentation_clip_path" clipPathUnits="userSpaceOnUse">
   <rect x="0" y="0" width="5000" height="7000"/>
  </clipPath>
  <clipPath id="presentation_clip_path_shrink" clipPathUnits="userSpaceOnUse">
   <rect x="5" y="7" width="4990" height="6986"/>
  </clipPath>
 </defs>
 <defs class="TextShapeIndex">
  <g ooo:slide="id1" ooo:id-list="id3 id4 id5 id6 id7 id8"/>
 </defs>
 <defs class="EmbeddedBulletChars">
  <g id="bullet-char-template-57356" transform="scale(0.00048828125,-0.00048828125)">
   <path d="M 580,1141 L 1163,571 580,0 -4,571 580,1141 Z"/>
  </g>
  <g id="bullet-char-template-57354" transform="scale(0.00048828125,-0.00048828125)">
   <path d="M 8,1128 L 1137,1128 1137,0 8,0 8,1128 Z"/>
  </g>
  <g id="bullet-char-template-10146" transform="scale(0.00048828125,-0.00048828125)">
   <path d="M 174,0 L 602,739 174,1481 1456,739 174,0 Z M 1358,739 L 309,1346 659,739 1358,739 Z"/>
  </g>
  <g id="bullet-char-template-10132" transform="scale(0.00048828125,-0.00048828125)">
   <path d="M 2015,739 L 1276,0 717,0 1260,543 174,543 174,936 1260,936 717,1481 1274,1481 2015,739 Z"/>
  </g>
  <g id="bullet-char-template-10007" transform="scale(0.00048828125,-0.00048828125)">
   <path d="M 0,-2 C -7,14 -16,27 -25,37 L 356,567 C 262,823 215,952 215,954 215,979 228,992 255,992 264,992 276,990 289,987 310,991 331,999 354,1012 L 381,999 492,748 772,1049 836,1024 860,1049 C 881,1039 901,1025 922,1006 886,937 835,863 770,784 769,783 710,716 594,584 L 774,223 C 774,196 753,168 711,139 L 727,119 C 717,90 699,76 672,76 641,76 570,178 457,381 L 164,-76 C 142,-110 111,-127 72,-127 30,-127 9,-110 8,-76 1,-67 -2,-52 -2,-32 -2,-23 -1,-13 0,-2 Z"/>
  </g>
  <g id="bullet-char-template-10004" transform="scale(0.00048828125,-0.00048828125)">
   <path d="M 285,-33 C 182,-33 111,30 74,156 52,228 41,333 41,471 41,549 55,616 82,672 116,743 169,778 240,778 293,778 328,747 346,684 L 369,508 C 377,444 397,411 428,410 L 1163,1116 C 1174,1127 1196,1133 1229,1133 1271,1133 1292,1118 1292,1087 L 1292,965 C 1292,929 1282,901 1262,881 L 442,47 C 390,-6 338,-33 285,-33 Z"/>
  </g>
  <g id="bullet-char-template-9679" transform="scale(0.00048828125,-0.00048828125)">
   <path d="M 813,0 C 632,0 489,54 383,161 276,268 223,411 223,592 223,773 276,916 383,1023 489,1130 632,1184 813,1184 992,1184 1136,1130 1245,1023 1353,916 1407,772 1407,592 1407,412 1353,268 1245,161 1136,54 992,0 813,0 Z"/>
  </g>
  <g id="bullet-char-template-8226" transform="scale(0.00048828125,-0.00048828125)">
   <path d="M 346,457 C 273,457 209,483 155,535 101,586 74,649 74,723 74,796 101,859 155,911 209,963 273,989 346,989 419,989 480,963 531,910 582,859 608,796 608,723 608,648 583,586 532,535 482,483 420,457 346,457 Z"/>
  </g>
  <g id="bullet-char-template-8211" transform="scale(0.00048828125,-0.00048828125)">
   <path d="M -4,459 L 1135,459 1135,606 -4,606 -4,459 Z"/>
  </g>
  <g id="bullet-char-template-61548" transform="scale(0.00048828125,-0.00048828125)">
   <path d="M 173,740 C 173,903 231,1043 346,1159 462,1274 601,1332 765,1332 928,1332 1067,1274 1183,1159 1299,1043 1357,903 1357,740 1357,577 1299,437 1183,322 1067,206 928,148 765,148 601,148 462,206 346,322 231,437 173,577 173,740 Z"/>
  </g>
 </defs>
 <g>
  <g id="id2" class="Master_Slide">
   <g id="bg-id2" class="Background"/>
   <g id="bo-id2" class="BackgroundObjects"/>
  </g>
 </g>
 <g class="SlideGroup">
  <g>
   <g id="container-id1">
    <g id="id1" class="Slide" clip-path="url(#presentation_clip_path)">
     <g class="Page">
      <g class="Group">
       <g class="com.sun.star.drawing.CustomShape">
        <g id="id3">
         <rect class="BoundingBox" stroke="none" fill="none" x="1990" y="2567" width="1010" height="1010"/>
         <g style="opacity: 0.298039215686275">
          <path fill="none" stroke="rgb(0,0,0)" stroke-width="353" stroke-linejoin="round" d="M 2822,3072 C 2822,3129 2807,3185 2778,3235 2749,3285 2708,3326 2658,3355 2608,3384 2552,3399 2494,3399 2437,3399 2381,3384 2331,3355 2281,3326 2240,3285 2211,3235 2182,3185 2167,3129 2167,3072 2167,3014 2182,2958 2211,2908 2240,2858 2281,2817 2331,2788 2381,2759 2437,2744 2494,2744 2552,2744 2608,2759 2658,2788 2708,2817 2749,2858 2778,2908 2807,2958 2822,3014 2822,3072 Z"/>
         </g>
        </g>
       </g>
       <g class="com.sun.star.drawing.CustomShape">
        <g id="id4">
         <rect class="BoundingBox" stroke="none" fill="none" x="1450" y="2027" width="2090" height="2089"/>
         <g style="opacity: 0.298039215686275">
          <path fill="none" stroke="rgb(0,0,0)" stroke-width="353" stroke-linejoin="round" d="M 3362,3071 C 3362,3223 3322,3373 3246,3505 3170,3636 3060,3746 2928,3822 2796,3898 2647,3938 2495,3938 2342,3938 2193,3898 2061,3822 1929,3746 1819,3636 1743,3505 1667,3373 1627,3223 1627,3071 1627,2919 1667,2769 1743,2638 1819,2506 1929,2396 2061,2320 2193,2244 2342,2204 2495,2204 2647,2204 2796,2244 2928,2320 3060,2396 3170,2506 3246,2637 3322,2769 3362,2919 3362,3071 L 3362,3071 Z"/>
         </g>
        </g>
       </g>
       <g class="com.sun.star.drawing.CustomShape">
        <g id="id5">
         <rect class="BoundingBox" stroke="none" fill="none" x="846" y="1423" width="3298" height="3298"/>
         <path fill="none" stroke="rgb(0,0,0)" stroke-width="353" stroke-linejoin="round" d="M 3966,3072 C 3966,3330 3898,3584 3769,3807 3640,4031 3454,4217 3230,4346 3007,4475 2753,4543 2495,4543 2236,4543 1982,4475 1759,4346 1535,4217 1349,4031 1220,3807 1091,3584 1023,3330 1023,3072 1023,2813 1091,2559 1220,2336 1349,2112 1535,1926 1759,1797 1982,1668 2236,1600 2494,1600 2753,1600 3007,1668 3230,1797 3454,1926 3640,2112 3769,2336 3898,2559 3966,2813 3966,3071 L 3966,3072 Z"/>
        </g>
       </g>
       <g class="com.sun.star.drawing.LineShape">
        <g id="id6">
         <rect class="BoundingBox" stroke="none" fill="none" x="1214" y="5173" width="2355" height="355"/>
         <path fill="none" stroke="rgb(0,0,0)" stroke-width="353" stroke-linejoin="round" d="M 1391,5350 L 3391,5350"/>
        </g>
       </g>
       <g class="com.sun.star.drawing.CustomShape">
        <g id="id7">
         <rect class="BoundingBox" stroke="none" fill="none" x="3113" y="4867" width="985" height="985"/>
         <path fill="rgb(0,0,0)" stroke="none" d="M 4096,5359 L 3114,5850 3114,4868 4096,5359 Z"/>
         <path fill="none" stroke="rgb(0,0,0)" d="M 4096,5359 L 3114,5850 3114,4868 4096,5359 Z"/>
        </g>
       </g>
       <g class="com.sun.star.drawing.CustomShape">
        <g id="id8">
         <rect class="BoundingBox" stroke="none" fill="none" x="890" y="4867" width="986" height="985"/>
         <path fill="rgb(0,0,0)" stroke="none" d="M 891,5361 L 1872,4868 1874,5850 891,5361 Z"/>
         <path fill="none" stroke="rgb(0,0,0)" d="M 891,5361 L 1872,4868 1874,5850 891,5361 Z"/>
        </g>
       </g>
      </g>
     </g>
    </g>
   </g>
  </g>
 </g>
</svg>